{
  "accessors": [
    {
      "bufferView": 2,
      "componentType": 5126,
      "count": 8308,
      "max": [
        0.1490394026041031,
        1.1563084125518799,
        0.5520039796829224
      ],
      "min": [
        -0.149039164185524,
        -0.03850770369172096,
        -0.05000000447034836
      ],
      "type": "VEC3"
    },
    {
      "bufferView": 2,
      "byteOffset": 99696,
      "componentType": 5126,
      "count": 8308,
      "max": [
        1.0,
        1.0,
        1.0
      ],
      "min": [
        -1.0,
        -1.0,
        -1.0
      ],
      "type": "VEC3"
    },
    {
      "bufferView": 1,
      "componentType": 5126,
      "count": 8308,
      "max": [
        1.000370740890503,
        1.0000001192092896
      ],
      "min": [
        -0.00037076330045238137,
        0.011537200771272182
      ],
      "type": "VEC2"
    },
    {
      "bufferView": 0,
      "componentType": 5125,
      "count": 27768,
      "type": "SCALAR"
    },
    {
      "bufferView": 2,
      "byteOffset": 199392,
      "componentType": 5126,
      "count": 411,
      "max": [
        0.017612971365451813,
        0.6143149137496948,
        0.03128477931022644
      ],
      "min": [
        -0.031133538112044334,
        -0.023202020674943924,
        -0.020602354779839516
      ],
      "type": "VEC3"
    },
    {
      "bufferView": 2,
      "byteOffset": 204324,
      "componentType": 5126,
      "count": 411,
      "max": [
        1.0,
        1.0,
        1.0
      ],
      "min": [
        -1.0,
        -1.0,
        -1.0
      ],
      "type": "VEC3"
    },
    {
      "bufferView": 1,
      "byteOffset": 66464,
      "componentType": 5126,
      "count": 411,
      "max": [
        1.0000001192092896,
        0.9066115021705627
      ],
      "min": [
        -1.7274252861465555e-10,
        0.02934657596051693
      ],
      "type": "VEC2"
    },
    {
      "bufferView": 0,
      "byteOffset": 111072,
      "componentType": 5125,
      "count": 1056,
      "type": "SCALAR"
    },
    {
      "bufferView": 2,
      "byteOffset": 209256,
      "componentType": 5126,
      "count": 12167,
      "max": [
        0.14728330075740814,
        1.009690523147583,
        0.550247848033905
      ],
      "min": [
        -0.14728304743766785,
        1.003974437713623,
        0.25568148493766785
      ],
      "type": "VEC3"
    },
    {
      "bufferView": 2,
      "byteOffset": 355260,
      "componentType": 5126,
      "count": 12167,
      "max": [
        0.9510607719421387,
        1.0,
        1.0
      ],
      "min": [
        -0.9510607719421387,
        -0.9937798976898193,
        -1.0
      ],
      "type": "VEC3"
    },
    {
      "bufferView": 1,
      "byteOffset": 69752,
      "componentType": 5126,
      "count": 12167,
      "max": [
        1.0000003576278687,
        1.0000001192092896
      ],
      "min": [
        -4.078038386978733e-07,
        -1.1920930376163597e-07
      ],
      "type": "VEC2"
    },
    {
      "bufferView": 0,
      "byteOffset": 115296,
      "componentType": 5125,
      "count": 43392,
      "type": "SCALAR"
    },
    {
      "bufferView": 2,
      "byteOffset": 501264,
      "componentType": 5126,
      "count": 4619,
      "max": [
        0.028448231518268585,
        0.22743891179561615,
        0.07867319136857986
      ],
      "min": [
        -0.06843305379152298,
        -0.00871542189270258,
        -0.01415376365184784
      ],
      "type": "VEC3"
    },
    {
      "bufferView": 2,
      "byteOffset": 556692,
      "componentType": 5126,
      "count": 4619,
      "max": [
        1.0,
        1.0,
        1.0
      ],
      "min": [
        -1.0,
        -1.0,
        -1.0
      ],
      "type": "VEC3"
    },
    {
      "bufferView": 1,
      "byteOffset": 167088,
      "componentType": 5126,
      "count": 4619,
      "max": [
        1.0001493692398071,
        1.0000001192092896
      ],
      "min": [
        -0.00014933013881091028,
        0.0
      ],
      "type": "VEC2"
    },
    {
      "bufferView": 0,
      "byteOffset": 288864,
      "componentType": 5125,
      "count": 20544,
      "type": "SCALAR"
    },
    {
      "bufferView": 2,
      "byteOffset": 612120,
      "componentType": 5126,
      "count": 192,
      "max": [
        -0.007949789986014366,
        0.02299182489514351,
        0.012042617425322533
      ],
      "min": [
        -0.03203500807285309,
        0.0012135208817198873,
        -0.01204261090606451
      ],
      "type": "VEC3"
    },
    {
      "bufferView": 2,
      "byteOffset": 614424,
      "componentType": 5126,
      "count": 192,
      "max": [
        1.0,
        0.0,
        1.0
      ],
      "min": [
        -1.0,
        0.0,
        -1.0
      ],
      "type": "VEC3"
    },
    {
      "bufferView": 1,
      "byteOffset": 204040,
      "componentType": 5126,
      "count": 192,
      "max": [
        0.0,
        0.0
      ],
      "min": [
        0.0,
        0.0
      ],
      "type": "VEC2"
    },
    {
      "bufferView": 0,
      "byteOffset": 371040,
      "componentType": 5125,
      "count": 768,
      "type": "SCALAR"
    },
    {
      "bufferView": 2,
      "byteOffset": 616728,
      "componentType": 5126,
      "count": 9284,
      "max": [
        0.019644388929009438,
        0.20871713757514954,
        0.07932878285646439
      ],
      "min": [
        -0.05962921679019928,
        0.1339443176984787,
        0.049748022109270096
      ],
      "type": "VEC3"
    },
    {
      "bufferView": 2,
      "byteOffset": 728136,
      "componentType": 5126,
      "count": 9284,
      "max": [
        1.0,
        0.9956297874450684,
        0.9719512462615967
      ],
      "min": [
        -1.0,
        -0.999530553817749,
        -0.9984152913093567
      ],
      "type": "VEC3"
    },
    {
      "bufferView": 1,
      "byteOffset": 205576,
      "componentType": 5126,
      "count": 9284,
      "max": [
        1.0000003576278687,
        1.0000001192092896
      ],
      "min": [
        -4.078038386978733e-07,
        0.0
      ],
      "type": "VEC2"
    },
    {
      "bufferView": 0,
      "byteOffset": 374112,
      "componentType": 5125,
      "count": 34176,
      "type": "SCALAR"
    },
    {
      "bufferView": 2,
      "byteOffset": 839544,
      "componentType": 5126,
      "count": 1848,
      "max": [
        0.008993562310934067,
        0.6015490889549255,
        -0.12645390629768372
      ],
      "min": [
        -0.2097889482975006,
        -0.16090413928031921,
        -0.16422218084335327
      ],
      "type": "VEC3"
    },
    {
      "bufferView": 2,
      "byteOffset": 861720,
      "componentType": 5126,
      "count": 1848,
      "max": [
        0.9947052001953125,
        0.9922378659248352,
        0.9894853830337524
      ],
      "min": [
        -0.9948246479034424,
        -0.9926812052726746,
        -0.9885702729225159
      ],
      "type": "VEC3"
    },
    {
      "bufferView": 1,
      "byteOffset": 279848,
      "componentType": 5126,
      "count": 1848,
      "max": [
        1.0,
        1.0
      ],
      "min": [
        -7.450580596923828e-08,
        0.5
      ],
      "type": "VEC2"
    },
    {
      "bufferView": 0,
      "byteOffset": 510816,
      "componentType": 5125,
      "count": 5040,
      "type": "SCALAR"
    },
    {
      "bufferView": 2,
      "byteOffset": 883896,
      "componentType": 5126,
      "count": 18984,
      "max": [
        0.009898706339299679,
        0.606477677822113,
        -0.12549053132534027
      ],
      "min": [
        -0.2107713222503662,
        -0.1620648205280304,
        -0.16453856229782104
      ],
      "type": "VEC3"
    },
    {
      "bufferView": 2,
      "byteOffset": 1111704,
      "componentType": 5126,
      "count": 18984,
      "max": [
        0.9996685981750488,
        0.9999972581863403,
        0.9891140460968018
      ],
      "min": [
        -0.9995619058609009,
        -0.9999998807907104,
        -0.9891458749771118
      ],
      "type": "VEC3"
    },
    {
      "bufferView": 1,
      "byteOffset": 294632,
      "componentType": 5126,
      "count": 18984,
      "max": [
        1.0,
        1.0
      ],
      "min": [
        -8.647197091704584e-08,
        0.5
      ],
      "type": "VEC2"
    },
    {
      "bufferView": 0,
      "byteOffset": 530976,
      "componentType": 5125,
      "count": 70560,
      "type": "SCALAR"
    }
  ],
  "asset": {
    "extras": {
      "author": "Elasta Kristya (https://sketchfab.com/luca3d)",
      "license": "CC-BY-4.0 (http://creativecommons.org/licenses/by/4.0/)",
      "source": "https://sketchfab.com/3d-models/shower-high-poly-9316544084ce4c83842c786a0f8585b5",
      "title": "Shower (high poly)"
    },
    "generator": "Sketchfab-12.68.0",
    "version": "2.0"
  },
  "bufferViews": [
    {
      "buffer": 0,
      "byteLength": 813216,
      "name": "floatBufferViews",
      "target": 34963
    },
    {
      "buffer": 0,
      "byteLength": 446504,
      "byteOffset": 813216,
      "byteStride": 8,
      "name": "floatBufferViews",
      "target": 34962
    },
    {
      "buffer": 0,
      "byteLength": 1339512,
      "byteOffset": 1259720,
      "byteStride": 12,
      "name": "floatBufferViews",
      "target": 34962
    }
  ],
  "buffers": [
    {
      "byteLength": 2599232,
      "uri": "scene.bin"
    }
  ],
  "materials": [
    {
      "doubleSided": true,
      "name": "Stainless_Steel",
      "pbrMetallicRoughness": {
        "baseColorFactor": [
          0.729347,
          0.729347,
          0.729347,
          1.0
        ],
        "roughnessFactor": 0.0
      }
    },
    {
      "doubleSided": true,
      "name": "Black",
      "pbrMetallicRoughness": {
        "baseColorFactor": [
          0.0,
          0.0,
          0.0,
          1.0
        ],
        "metallicFactor": 0.0,
        "roughnessFactor": 0.5
      }
    },
    {
      "doubleSided": true,
      "name": "Grey",
      "pbrMetallicRoughness": {
        "baseColorFactor": [
          0.127958,
          0.153114,
          0.159647,
          1.0
        ],
        "metallicFactor": 0.0,
        "roughnessFactor": 0.4
      }
    }
  ],
  "meshes": [
    {
      "name": "Object_0",
      "primitives": [
        {
          "attributes": {
            "NORMAL": 1,
            "POSITION": 0,
            "TEXCOORD_0": 2
          },
          "indices": 3,
          "material": 0,
          "mode": 4
        }
      ]
    },
    {
      "name": "Object_1",
      "primitives": [
        {
          "attributes": {
            "NORMAL": 5,
            "POSITION": 4,
            "TEXCOORD_0": 6
          },
          "indices": 7,
          "material": 1,
          "mode": 4
        }
      ]
    },
    {
      "name": "Object_2",
      "primitives": [
        {
          "attributes": {
            "NORMAL": 9,
            "POSITION": 8,
            "TEXCOORD_0": 10
          },
          "indices": 11,
          "material": 2,
          "mode": 4
        }
      ]
    },
    {
      "name": "Object_3",
      "primitives": [
        {
          "attributes": {
            "NORMAL": 13,
            "POSITION": 12,
            "TEXCOORD_0": 14
          },
          "indices": 15,
          "material": 0,
          "mode": 4
        }
      ]
    },
    {
      "name": "Object_4",
      "primitives": [
        {
          "attributes": {
            "NORMAL": 17,
            "POSITION": 16,
            "TEXCOORD_0": 18
          },
          "indices": 19,
          "material": 1,
          "mode": 4
        }
      ]
    },
    {
      "name": "Object_5",
      "primitives": [
        {
          "attributes": {
            "NORMAL": 21,
            "POSITION": 20,
            "TEXCOORD_0": 22
          },
          "indices": 23,
          "material": 2,
          "mode": 4
        }
      ]
    },
    {
      "name": "Object_6",
      "primitives": [
        {
          "attributes": {
            "NORMAL": 25,
            "POSITION": 24,
            "TEXCOORD_0": 26
          },
          "indices": 27,
          "material": 1,
          "mode": 4
        }
      ]
    },
    {
      "name": "Object_7",
      "primitives": [
        {
          "attributes": {
            "NORMAL": 29,
            "POSITION": 28,
            "TEXCOORD_0": 30
          },
          "indices": 31,
          "material": 0,
          "mode": 4
        }
      ]
    }
  ],
  "nodes": [
    {
      "children": [
        1
      ],
      "matrix": [
        1.0,
        0.0,
        0.0,
        0.0,
        0.0,
        2.220446049250313e-16,
        -1.0,
        0.0,
        0.0,
        1.0,
        2.220446049250313e-16,
        0.0,
        0.0,
        0.0,
        0.0,
        1.0
      ],
      "name": "Sketchfab_model"
    },
    {
      "children": [
        2
      ],
      "name": "root"
    },
    {
      "children": [
        3,
        7,
        11
      ],
      "matrix": [
        1.0,
        0.0,
        0.0,
        0.0,
        0.0,
        2.220446049250313e-16,
        1.0,
        0.0,
        0.0,
        -1.0,
        2.220446049250313e-16,
        0.0,
        0.0,
        0.0,
        0.0,
        1.0
      ],
      "name": "GLTF_SceneRootNode"
    },
    {
      "children": [
        4,
        5,
        6
      ],
      "name": "Shower_0"
    },
    {
      "mesh": 0,
      "name": "Object_4"
    },
    {
      "mesh": 1,
      "name": "Object_5"
    },
    {
      "mesh": 2,
      "name": "Object_6"
    },
    {
      "children": [
        8,
        9,
        10
      ],
      "matrix": [
        1.0,
        0.0,
        0.0,
        0.0,
        0.0,
        1.0,
        0.0,
        0.0,
        0.0,
        0.0,
        1.0,
        0.0,
        -0.04652794450521469,
        0.5938137769699097,
        0.0,
        1.0
      ],
      "name": "Shower head_1"
    },
    {
      "mesh": 3,
      "name": "Object_8"
    },
    {
      "mesh": 4,
      "name": "Object_9"
    },
    {
      "mesh": 5,
      "name": "Object_10"
    },
    {
      "children": [
        12,
        13
      ],
      "matrix": [
        1.0,
        0.0,
        0.0,
        0.0,
        0.0,
        1.0,
        0.0,
        0.0,
        0.0,
        0.0,
        1.0,
        0.0,
        0.0,
        0.0,
        0.15308409929275513,
        1.0
      ],
      "name": "Pipe_2"
    },
    {
      "mesh": 6,
      "name": "Object_12"
    },
    {
      "mesh": 7,
      "name": "Object_13"
    }
  ],
  "scene": 0,
  "scenes": [
    {
      "name": "Sketchfab_Scene",
      "nodes": [
        0
      ]
    }
  ]
}
